<svg xmlns="http://www.w3.org/2000/svg" width="77.752" height="11.876" viewBox="0 0 77.752 11.876">
  <g id="Gruppe_2" data-name="Gruppe 2" transform="translate(-106.124 -4481)">
    <path id="Icon_ionic-ios-star-yellow" data-name="Icon ionic-ios-star-yellow" d="M14.554,7.486h-4.2L9.079,3.678a.462.462,0,0,0-.868,0L6.935,7.486H2.707a.458.458,0,0,0-.457.457.336.336,0,0,0,.009.077.439.439,0,0,0,.191.323L5.9,10.775,4.577,14.626a.458.458,0,0,0,.157.514.442.442,0,0,0,.257.111.56.56,0,0,0,.285-.1l3.369-2.4,3.369,2.4a.535.535,0,0,0,.285.1.41.41,0,0,0,.254-.111.453.453,0,0,0,.157-.514l-1.325-3.851L14.808,8.32l.083-.071a.437.437,0,0,0-.337-.762Z" transform="translate(103.874 4477.625)" fill="#edca67"/>
    <path id="Icon_ionic-ios-star-yellow-2" data-name="Icon ionic-ios-star-yellow" d="M14.554,7.486h-4.2L9.079,3.678a.462.462,0,0,0-.868,0L6.935,7.486H2.707a.458.458,0,0,0-.457.457.336.336,0,0,0,.009.077.439.439,0,0,0,.191.323L5.9,10.775,4.577,14.626a.458.458,0,0,0,.157.514.442.442,0,0,0,.257.111.56.56,0,0,0,.285-.1l3.369-2.4,3.369,2.4a.535.535,0,0,0,.285.1.41.41,0,0,0,.254-.111.453.453,0,0,0,.157-.514l-1.325-3.851L14.808,8.32l.083-.071a.437.437,0,0,0-.337-.762Z" transform="translate(120.115 4477.625)" fill="#edca67"/>
    <path id="Icon_ionic-ios-star-yellow-3" data-name="Icon ionic-ios-star-yellow" d="M14.554,7.486h-4.2L9.079,3.678a.462.462,0,0,0-.868,0L6.935,7.486H2.707a.458.458,0,0,0-.457.457.336.336,0,0,0,.009.077.439.439,0,0,0,.191.323L5.9,10.775,4.577,14.626a.458.458,0,0,0,.157.514.442.442,0,0,0,.257.111.56.56,0,0,0,.285-.1l3.369-2.4,3.369,2.4a.535.535,0,0,0,.285.1.41.41,0,0,0,.254-.111.453.453,0,0,0,.157-.514l-1.325-3.851L14.808,8.32l.083-.071a.437.437,0,0,0-.337-.762Z" transform="translate(136.355 4477.625)" fill="#edca67"/>
    <path id="Icon_ionic-ios-star-yellow-4" data-name="Icon ionic-ios-star-yellow" d="M14.554,7.486h-4.2L9.079,3.678a.462.462,0,0,0-.868,0L6.935,7.486H2.707a.458.458,0,0,0-.457.457.336.336,0,0,0,.009.077.439.439,0,0,0,.191.323L5.9,10.775,4.577,14.626a.458.458,0,0,0,.157.514.442.442,0,0,0,.257.111.56.56,0,0,0,.285-.1l3.369-2.4,3.369,2.4a.535.535,0,0,0,.285.1.41.41,0,0,0,.254-.111.453.453,0,0,0,.157-.514l-1.325-3.851L14.808,8.32l.083-.071a.437.437,0,0,0-.337-.762Z" transform="translate(152.596 4477.625)" fill="#edca67"/>
    <path id="Icon_ionic-ios-star-yellow-5" data-name="Icon ionic-ios-star-yellow" d="M14.554,7.486h-4.2L9.079,3.678a.462.462,0,0,0-.868,0L6.935,7.486H2.707a.458.458,0,0,0-.457.457.336.336,0,0,0,.009.077.439.439,0,0,0,.191.323L5.9,10.775,4.577,14.626a.458.458,0,0,0,.157.514.442.442,0,0,0,.257.111.56.56,0,0,0,.285-.1l3.369-2.4,3.369,2.4a.535.535,0,0,0,.285.1.41.41,0,0,0,.254-.111.453.453,0,0,0,.157-.514l-1.325-3.851L14.808,8.32l.083-.071a.437.437,0,0,0-.337-.762Z" transform="translate(168.837 4477.625)" fill="#edca67"/>
  </g>
</svg>
